<svg xmlns="http://www.w3.org/2000/svg" viewBox="0 0 30.824 24.633">
  <defs>
    <style>
      .cls-1 {
        fill: #fff;
      }
    </style>
  </defs>
  <g id="Group_154" data-name="Group 154" transform="translate(-10 -331.185)">
    <g id="Group_97" data-name="Group 97" transform="translate(9.984 331.1)">
      <path id="Union_16" data-name="Union 16" class="cls-1" d="M1444.989,996.962c-.591-.618-.536-1.826-.446-3.827v-.015a.14.14,0,0,1,0-.022.1.1,0,0,0,0-.016c.061-.549.107-.911.14-1.174l.018-.14a1.966,1.966,0,0,0-.448-1.5,2.812,2.812,0,0,0-.619-.423h-.067a1.13,1.13,0,0,1-.256-.026,14.727,14.727,0,0,1-4.258-1.651,13.711,13.711,0,0,1-3.349-2.742,15.637,15.637,0,0,1-3.655-7.859,1.87,1.87,0,0,1,.343-1.56,2.033,2.033,0,0,1,1.59-.686c.338-.012.648-.015.953-.015a16.4,16.4,0,0,1,3.945.422,10.215,10.215,0,0,1,3.707,1.722l.029.022a18.052,18.052,0,0,1,3.286-3.823,3.774,3.774,0,0,1,1.183-.693.978.978,0,0,1,.343-.06h.045a1.04,1.04,0,0,1,.343.06l1.182.693a17.99,17.99,0,0,1,3.269,3.8,10.217,10.217,0,0,1,3.7-1.717,16.2,16.2,0,0,1,3.94-.422c.305,0,.615.007.953.019a2.015,2.015,0,0,1,1.59.682,1.862,1.862,0,0,1,.347,1.56,15.634,15.634,0,0,1-3.659,7.855,13.877,13.877,0,0,1-3.349,2.742,14.631,14.631,0,0,1-4.257,1.651,1.115,1.115,0,0,1-.244.026,2.844,2.844,0,0,0-.63.429,1.585,1.585,0,0,0-.43,1.07l.006.049c.006.046.013.093.021.143a25.673,25.673,0,0,1,.277,2.674c.035.513.071,1.043.126,1.568a1.284,1.284,0,0,1-1.247,1.59,1.035,1.035,0,0,0-.131.028.949.949,0,0,1-.144.029c-.833.072-1.46.106-1.974.106A2.9,2.9,0,0,1,1444.989,996.962Zm1.031-20.2a13.91,13.91,0,0,0-1.465,2.3c-.038.072-.073.147-.108.219l-.043.09-.147.309c-.077.17-.179.394-.279.625a12.006,12.006,0,0,0-.464,1.3,12.483,12.483,0,0,0-.324,1.357,6.7,6.7,0,0,0-.094,1.393,7.743,7.743,0,0,0,.18,1.383,6.215,6.215,0,0,0,.445,1.31.031.031,0,0,0,.031.019.032.032,0,0,0,.03-.033c0-.116-.01-.232-.016-.344s-.014-.228-.017-.338c-.011-.214-.023-.443-.027-.671-.008-.532,0-.94.012-1.327.007-.21.019-.429.034-.655l0-.019v-.012c.007-.1.014-.2.021-.3l0-.039c0-.043.005-.086.008-.127l.015-.162a9.158,9.158,0,0,1,.193-1.308,10.753,10.753,0,0,1,.365-1.281c.068-.2.142-.41.226-.633l.121-.317c.013-.031.024-.061.036-.092l0-.005c.026-.068.055-.145.086-.216a16.1,16.1,0,0,1,1.224-2.4.037.037,0,0,0,0-.041.036.036,0,0,0-.022-.008A.028.028,0,0,0,1446.019,976.766Zm-10.2,2.339a10.551,10.551,0,0,0,4.592,6.1c-.02-.277-.029-.584-.021-.921a11.986,11.986,0,0,1,.627-3.487l-.056-.041a8.914,8.914,0,0,0-5.082-1.677.493.493,0,0,0-.071,0Zm18.689,6.067a10.578,10.578,0,0,0,4.534-6.062c0-.012.008-.023.012-.034-.023,0-.045,0-.072,0a8.913,8.913,0,0,0-5.082,1.677l-.011.008A11.744,11.744,0,0,1,1454.505,985.171Z" transform="translate(-1432 -972.815)"/>
      <path id="Path_213" data-name="Path 213" class="cls-1" d="M520.2,447.9" transform="translate(-500.586 -431.122)"/>
    </g>
  </g>
</svg>
