<svg xmlns="http://www.w3.org/2000/svg" viewBox="0 0 30.824 25">
  <defs>
    <style>
      .cls-1 {
        fill: #fff;
      }
    </style>
  </defs>
  <g id="Group_97" data-name="Group 97" transform="translate(-0.016 0.1)">
    <g id="Group_86" data-name="Group 86" transform="translate(17.602 2.496)">
      <path id="Path_205" data-name="Path 205" class="cls-1" d="M485.9,91.2a1.791,1.791,0,0,1-.211-.015l-.121-.011-.667-.026.441-.5q1.2-1.368,2.4-2.739l.049-.057.072-.03c2.912-1.187,4.909-3.455,6.1-6.94a.977.977,0,0,0,.083-.422.676.676,0,0,0-.294-.038c-.049,0-.106,0-.166,0a9.22,9.22,0,0,0-5.259,1.741l-.339.256-.151-.4q-.429-1.136-.863-2.272l-.087-.226.2-.143A11.82,11.82,0,0,1,494.53,77.3c.3,0,.61,0,.942.015a1.749,1.749,0,0,1,1.353.565,1.566,1.566,0,0,1,.279,1.3,15.31,15.31,0,0,1-3.579,7.7,13.874,13.874,0,0,1-7.437,4.295A.782.782,0,0,1,485.9,91.2Z" transform="translate(-484.218 -76.98)"/>
      <path id="Path_206" data-name="Path 206" class="cls-1" d="M477.112,69.44c.309,0,.618.008.931.015.927.03,1.488.531,1.326,1.5-.968,5.772-4.785,10.413-10.771,11.732a.614.614,0,0,1-.117.011c-.105,0-.211-.023-.316-.026q1.2-1.368,2.4-2.739c3.308-1.345,5.177-3.9,6.284-7.136.245-.712.041-.882-.516-.882-.057,0-.117,0-.181,0a9.577,9.577,0,0,0-5.436,1.8q-.43-1.136-.863-2.272a11.7,11.7,0,0,1,7.264-2.012m0-.64a16.2,16.2,0,0,0-3.941.422,10.215,10.215,0,0,0-3.707,1.722l-.388.29.173.452q.429,1.136.863,2.272l.3.795.682-.509a8.914,8.914,0,0,1,5.082-1.677c.026,0,.049,0,.072,0l-.011.034c-1.175,3.44-3.055,5.583-5.919,6.748l-.139.057-.1.113q-1.2,1.368-2.4,2.739L466.8,83.26l1.337.053c.026,0,.06,0,.1.008a2.241,2.241,0,0,0,.245.015,1.136,1.136,0,0,0,.256-.026,14.63,14.63,0,0,0,4.257-1.65,13.89,13.89,0,0,0,3.349-2.743A15.638,15.638,0,0,0,480,71.061a1.863,1.863,0,0,0-.347-1.56,2.017,2.017,0,0,0-1.59-.682c-.339-.011-.648-.019-.953-.019Z" transform="translate(-466.8 -68.8)"/>
    </g>
    <path id="Path_207" data-name="Path 207" class="cls-1" d="M511.531,99.436c.177.109.2.343.049.791-1.1,3.233-2.973,5.787-6.284,7.136q-1.2,1.368-2.4,2.739a1.711,1.711,0,0,0,.437.015c5.987-1.319,9.8-5.956,10.771-11.732a1.243,1.243,0,0,0-.241-1.085Z" transform="translate(-483.938 -93.73)"/>
    <g id="Group_87" data-name="Group 87" transform="translate(0.016 2.496)">
      <path id="Path_208" data-name="Path 208" class="cls-1" d="M19.775,91.295a1,1,0,0,1-.188-.019,13.86,13.86,0,0,1-7.437-4.295,15.309,15.309,0,0,1-3.579-7.7,1.548,1.548,0,0,1,.279-1.3,1.755,1.755,0,0,1,1.353-.565c.332-.011.64-.015.942-.015,3.217,0,5.519.64,7.456,2.08l.2.143-.087.226c-.283.742-.561,1.481-.844,2.223l-.17.448-.339-.256A9.22,9.22,0,0,0,12.1,80.523c-.064,0-.117,0-.166,0a.675.675,0,0,0-.294.038.85.85,0,0,0,.083.422c1.191,3.485,3.187,5.757,6.1,6.94l.072.03.049.057q1.2,1.368,2.4,2.739l.441.5-.667.026c-.034,0-.075.008-.121.011C19.922,91.287,19.846,91.295,19.775,91.295Z" transform="translate(-8.217 -77.076)"/>
      <path id="Path_209" data-name="Path 209" class="cls-1" d="M2.939,69.44A11.674,11.674,0,0,1,10.2,71.456c-.286.757-.576,1.515-.863,2.272a9.577,9.577,0,0,0-5.437-1.8c-.064,0-.124,0-.181,0-.558,0-.757.17-.516.882,1.1,3.233,2.973,5.787,6.284,7.136q1.2,1.368,2.4,2.739c-.105,0-.215.026-.316.026a.585.585,0,0,1-.117-.011C5.471,81.368,1.651,76.727.682,70.955c-.162-.964.4-1.469,1.326-1.5.313-.008.622-.015.931-.015m0-.64h0c-.305,0-.614,0-.953.015A2.036,2.036,0,0,0,.4,69.5a1.869,1.869,0,0,0-.343,1.56A15.632,15.632,0,0,0,3.708,78.92a13.716,13.716,0,0,0,3.349,2.743,14.737,14.737,0,0,0,4.257,1.65,1.137,1.137,0,0,0,.256.026,2.184,2.184,0,0,0,.245-.015c.038,0,.072-.008.1-.008l1.337-.053-.878-1.013q-1.2-1.368-2.4-2.739l-.1-.113-.139-.057c-2.863-1.164-4.743-3.308-5.919-6.748l-.011-.034a.48.48,0,0,1,.072,0A8.914,8.914,0,0,1,8.96,74.24l.682.509.3-.795,0,0c.286-.754.573-1.511.859-2.264l.173-.452-.388-.29a10.215,10.215,0,0,0-3.707-1.722A16.4,16.4,0,0,0,2.939,68.8Z" transform="translate(-0.016 -68.8)"/>
    </g>
    <path id="Path_210" data-name="Path 210" class="cls-1" d="M19.572,99.34c-.177.109-.2.343-.049.791,1.1,3.233,2.973,5.787,6.284,7.136q1.2,1.368,2.4,2.739a1.711,1.711,0,0,1-.437.015c-5.983-1.322-9.8-5.964-10.771-11.736a1.244,1.244,0,0,1,.241-1.085Z" transform="translate(-16.313 -93.634)"/>
    <path id="Path_211" data-name="Path 211" class="cls-1" d="M233.351,11.9a18.133,18.133,0,0,0-4.4-5.851,3.908,3.908,0,0,0-1.183-.693,1.041,1.041,0,0,0-.343-.06h-.045a.982.982,0,0,0-.343.06,3.755,3.755,0,0,0-1.183.693,18.132,18.132,0,0,0-4.4,5.851c-1.624,3.715-1.119,6.529-.75,7.479a4.477,4.477,0,0,0,2.407,2.611,5.281,5.281,0,0,1,1.089.678,1.944,1.944,0,0,1,.448,1.5c-.034.271-.087.663-.158,1.315,0,.011,0,.023,0,.038-.181,4.027-.219,4.724,4.6,4.306.094-.008.181-.045.275-.057a1.278,1.278,0,0,0,1.247-1.59c-.147-1.413-.158-2.844-.4-4.242-.011-.068-.019-.132-.026-.192a1.587,1.587,0,0,1,.43-1.07A5.281,5.281,0,0,1,231.7,22H231.7a4.268,4.268,0,0,0,2.407-2.611C234.474,18.434,234.979,15.619,233.351,11.9Zm-6.36,17.033c-.991-.023-.761-4.092.06-5.5a.508.508,0,0,1,.64-.215c.256.124.309.429.35.761.173,1.349.414,2.69.531,4.043C228.679,29.2,227.248,28.945,226.992,28.937Zm1-6.736c-.1,0-.448.023-.64.023-.177,0-.452-.019-.565-.026A4.894,4.894,0,0,1,222.2,17.04,13.661,13.661,0,0,1,226.2,8.047c.543-.52,1.013-1.221,1.726-.712.234.222.463.5.682.712a13.668,13.668,0,0,1,4.009,8.993A4.9,4.9,0,0,1,227.994,22.2Z" transform="translate(-212.019 -5.197)"/>
    <path id="Subtraction_5" data-name="Subtraction 5" class="cls-1" d="M1438.8,997.533a2.905,2.905,0,0,1-2.18-.57c-.591-.618-.536-1.826-.447-3.827v-.015a.137.137,0,0,1,0-.021.108.108,0,0,0,0-.016c.061-.549.107-.911.141-1.175l.018-.14a1.967,1.967,0,0,0-.448-1.5,3.718,3.718,0,0,0-.838-.542l-.009,0-.242-.131a4.456,4.456,0,0,1-2.407-2.611,7.23,7.23,0,0,1-.372-2.7,12.7,12.7,0,0,1,1.122-4.777,18.154,18.154,0,0,1,4.4-5.851,3.774,3.774,0,0,1,1.184-.693.976.976,0,0,1,.343-.06h.045a1.038,1.038,0,0,1,.343.06l1.183.693a18.2,18.2,0,0,1,4.4,5.854c1.528,3.494,1.19,6.345.75,7.479a4.289,4.289,0,0,1-2.408,2.611h.007l-.249.135a3.731,3.731,0,0,0-.84.543,1.58,1.58,0,0,0-.43,1.07l.006.049c.006.046.012.093.021.143a25.791,25.791,0,0,1,.277,2.674c.035.513.071,1.043.126,1.568a1.284,1.284,0,0,1-1.247,1.59.947.947,0,0,0-.132.028.862.862,0,0,1-.144.029C1439.941,997.5,1439.314,997.533,1438.8,997.533Zm-1.126-20.779a.028.028,0,0,0-.023.012,13.872,13.872,0,0,0-1.465,2.3c-.038.072-.073.147-.108.219l-.043.09-.147.309c-.077.17-.179.394-.279.625a12.1,12.1,0,0,0-.463,1.3,12.542,12.542,0,0,0-.324,1.357,6.638,6.638,0,0,0-.094,1.393,7.68,7.68,0,0,0,.18,1.383,6.164,6.164,0,0,0,.445,1.31.031.031,0,0,0,.031.019.032.032,0,0,0,.03-.033c0-.116-.01-.232-.017-.344s-.013-.227-.017-.338c-.011-.214-.022-.442-.027-.671-.009-.531,0-.941.012-1.327.007-.209.018-.43.034-.655v-.031c.007-.1.013-.2.021-.3l0-.039c0-.044.006-.087.008-.127l.015-.162a9.075,9.075,0,0,1,.193-1.308,10.722,10.722,0,0,1,.365-1.281c.068-.2.142-.41.226-.633l.121-.317.036-.092,0-.005c.026-.068.055-.145.087-.216a16.023,16.023,0,0,1,1.224-2.4.037.037,0,0,0,0-.041A.037.037,0,0,0,1437.674,976.754Z" transform="translate(-1423.632 -972.815)"/>
    <path id="Path_213" data-name="Path 213" class="cls-1" d="M520.2,447.9" transform="translate(-500.586 -431.122)"/>
    <path id="Path_215" data-name="Path 215" class="cls-1" d="M231.854,6.606A18.466,18.466,0,0,0,227.394.665a3.878,3.878,0,0,0-1.2-.7.987.987,0,0,0-.347-.06H225.8a.987.987,0,0,0-.347.06,5.586,5.586,0,0,0-1.168.731A17.335,17.335,0,0,0,219.791,6.6c-1.65,3.768-1.138,6.627-.761,7.592a4.54,4.54,0,0,0,2.445,2.652,5.226,5.226,0,0,1,1.1.686,1.972,1.972,0,0,1,.456,1.518c-.034.275-.087.671-.162,1.334,0,.011,0,.026,0,.038-.185,4.088-.222,4.8,4.672,4.37.094-.008.185-.045.279-.06a1.3,1.3,0,0,0,1.266-1.612c-.147-1.435-.162-2.89-.411-4.306-.011-.068-.019-.132-.026-.2a1.589,1.589,0,0,1,.437-1.085,5.171,5.171,0,0,1,1.1-.686h-.011a4.321,4.321,0,0,0,2.441-2.649C232.992,13.237,233.5,10.377,231.854,6.606Zm-5.614,17.459c-.072,0-.234.026-.429.03h-.023c-.2,0-.358-.026-.429-.03-.953-.026-.731-4.152.056-5.583a.5.5,0,0,1,.369-.256v0h.023v0a.5.5,0,0,1,.369.256C226.972,19.909,227.194,24.038,226.241,24.065Zm.173-7c-.1,0-.456.023-.648.023-.177,0-.46-.019-.573-.026a4.967,4.967,0,0,1-4.66-5.237A13.845,13.845,0,0,1,224.6,2.692c.55-.527.851-1.243,1.752-.723.237.226.471.509.693.723a13.889,13.889,0,0,1,4.069,9.129A4.982,4.982,0,0,1,226.414,17.061Z" transform="translate(-210.394 0)"/>
  </g>
</svg>
